<svg id="Layer_1" data-name="Layer 1" xmlns="http://www.w3.org/2000/svg" viewBox="0 0 22.4 22.4"><defs><style>.cls-1{fill:#747474;}</style></defs><path class="cls-1" d="M3.45.67,1.12,3C0,4.11,0,5.9.59,7.81A15.8,15.8,0,0,0,4.45,13.7l4.68,4.67A15.71,15.71,0,0,0,15,22.24c1.9.64,3.7.58,4.8-.52.82-.81,1.65-1.65,2.34-2.34a1.69,1.69,0,0,0,.35-1.65,3.77,3.77,0,0,0-1-1.7L20.16,14.7a3.66,3.66,0,0,0-1.7-1,1.67,1.67,0,0,0-1.64.34l-2,2-8-8,2-2a1.7,1.7,0,0,0,.35-1.64,3.77,3.77,0,0,0-1-1.7L6.79,1.33A3.75,3.75,0,0,0,5.1.32,1.72,1.72,0,0,0,3.45.67ZM6.13,2,7.46,3.34A2.94,2.94,0,0,1,8.23,4.6a.78.78,0,0,1-.1.75L5.79,7.68a.48.48,0,0,0,0,.67L14.48,17a.48.48,0,0,0,.67,0l2.34-2.34a.72.72,0,0,1,.74-.1,2.85,2.85,0,0,1,1.26.77l1.34,1.33A2.81,2.81,0,0,1,21.59,18a.75.75,0,0,1-.1.75c-.81.81-1.63,1.65-2.33,2.34s-2.12.87-3.84.3A15.12,15.12,0,0,1,9.8,17.71L5.12,13A15,15,0,0,1,1.49,7.51C.91,5.79,1,4.42,1.78,3.67L4.12,1.33a.78.78,0,0,1,.75-.09A2.74,2.74,0,0,1,6.12,2Z" transform="translate(-0.18 -0.25)"/></svg>